<svg width="276" height="291" viewBox="0 0 276 291" fill="none" xmlns="http://www.w3.org/2000/svg">
<path d="M187.105 10.8303C156.105 -0.769674 120.005 -5.36967 89.1049 8.83033C58.3049 22.8303 41.3048 60.3303 50.5048 92.7303C59.8048 127.83 85.9048 155.43 113.205 177.93C116.005 180.03 117.705 182.83 118.905 186.03V186.23C119.205 187.83 119.805 189.33 120.605 190.73C122.205 194.03 124.905 196.63 128.205 198.33C130.605 199.63 133.505 200.33 136.405 200.33C146.205 200.33 154.205 192.43 154.205 182.53C154.205 172.63 146.305 164.73 136.405 164.73C134.505 164.73 132.705 165.03 131.105 165.53C131.005 165.53 131.005 165.53 131.005 165.53C130.605 165.43 130.305 165.43 130.005 165.33C106.305 143.63 86.8048 116.33 77.5048 85.3303C71.4048 65.7303 74.8049 41.1303 92.9049 29.1303C118.605 12.3303 151.905 10.6303 181.205 16.9303C217.805 25.5303 246.105 52.4303 267.005 82.4303C253.805 47.3303 220.805 24.1303 187.105 10.8303ZM135.905 170.13C142.905 170.13 148.605 175.83 148.605 182.73C148.605 189.73 142.905 195.43 135.905 195.43C128.905 195.43 123.305 189.73 123.305 182.73C123.205 175.73 128.905 170.13 135.905 170.13Z" fill="#3FA9F5"/>
<path d="M126.405 198.83C125.005 196.63 123.205 194.83 121.005 193.53C118.305 191.73 115.005 190.73 111.505 190.73C109.405 190.73 107.305 191.13 105.405 191.83C75.4046 162.23 45.4046 128.33 37.4046 85.5304C32.7046 63.8304 41.1046 42.2304 53.9046 25.1304C35.5046 36.3304 19.5047 54.5304 19.1047 77.1304C17.9047 113.53 39.4047 145.53 60.6047 173.43C70.8047 187.63 85.1047 198.83 94.3047 213.63C95.0047 216.03 96.2047 218.33 97.8047 220.13C99.0047 221.53 100.405 222.73 102.005 223.63C104.705 225.33 107.905 226.33 111.305 226.33C121.105 226.33 129.105 218.43 129.105 208.53C129.305 205.03 128.205 201.63 126.405 198.83ZM111.305 221.63C104.305 221.63 98.6047 215.93 98.6047 209.03C98.6047 202.03 104.305 196.33 111.305 196.33C118.305 196.33 123.905 202.03 123.905 209.03C124.005 216.03 118.305 221.63 111.305 221.63Z" fill="#3FA9F5"/>
<path d="M102.105 226.23C100.805 224.03 98.9048 222.03 96.8048 220.63C94.0048 218.73 90.6048 217.63 86.9048 217.63C85.9048 217.63 85.0048 217.73 84.1048 217.83C82.3048 217.13 80.6048 216.13 79.1048 214.83C38.3048 180.03 6.40476 130.43 6.50476 75.3301C-1.69524 97.2301 -2.19525 121.83 5.30475 144.13C16.9047 179.23 42.0048 207.83 69.1048 232.13C69.1048 232.73 69.1047 233.33 69.2047 233.93V234.13C69.1047 234.63 69.1048 235.13 69.1048 235.53C69.1048 245.33 77.0048 253.33 86.9048 253.33C93.6048 253.33 99.5047 249.63 102.505 244.13C103.905 241.53 104.705 238.63 104.705 235.53C104.705 232.13 103.705 228.93 102.105 226.23ZM87.7047 248.73C80.7047 248.73 75.1048 243.03 75.1048 236.13C75.1048 229.13 80.8047 223.43 87.7047 223.43C94.7047 223.43 100.405 229.13 100.405 236.13C100.405 243.03 94.8047 248.73 87.7047 248.73Z" fill="#3FA9F5"/>
<path d="M242.705 159.23C228.105 129.33 204.905 105.63 183.305 80.8304C183.305 80.5304 183.305 80.2304 183.305 79.9304C183.305 76.2304 182.205 72.8304 180.305 70.0304C178.205 66.8304 175.105 64.3304 171.405 63.1304C169.605 62.5304 167.605 62.1304 165.505 62.1304C156.505 62.1304 149.105 68.7304 147.905 77.4304C147.805 77.7304 147.805 78.0304 147.805 78.3304C147.805 78.7304 147.705 79.1304 147.705 79.6304V80.0304C147.705 82.7304 148.305 85.2304 149.405 87.5304C150.705 90.3304 152.705 92.8304 155.305 94.5304C158.205 96.5304 161.705 97.7303 165.505 97.7303H165.905C167.705 98.1303 169.405 98.5304 171.205 98.8304C200.905 128.83 231.405 162.73 238.705 205.83C243.005 226.53 234.905 246.83 223.805 263.83C236.405 255.33 248.505 244.53 253.205 229.53C261.305 206.03 253.705 180.53 242.705 159.23ZM165.705 92.7303C158.705 92.7303 153.105 87.0304 153.105 80.1304C153.105 73.1304 158.805 67.4304 165.705 67.4304C172.705 67.4304 178.405 73.1304 178.405 80.1304C178.305 87.0304 172.705 92.7303 165.705 92.7303Z" fill="#9B9B9B"/>
<path d="M274.305 161.93C268.205 129.03 248.305 100.43 225.505 76.6304C220.105 70.6304 212.605 65.8303 208.105 59.2303C208.605 57.5303 208.905 55.8304 208.905 53.9304C208.905 44.0304 201.005 36.1304 191.105 36.1304C186.405 36.1304 182.305 37.8304 179.105 40.8304C175.505 44.0304 173.305 48.7304 173.305 53.9304C173.305 60.9304 177.405 66.9304 183.205 69.8304C185.605 71.0304 188.205 71.7303 191.105 71.7303H191.505C192.205 72.0303 192.805 72.4304 193.505 72.9304C236.905 107.43 268.305 159.13 270.605 215.43C274.705 197.93 277.805 179.73 274.305 161.93ZM191.005 66.3304C184.005 66.3304 178.405 60.6303 178.405 53.7303C178.405 46.7303 184.105 41.0304 191.005 41.0304C198.005 41.0304 203.705 46.7303 203.705 53.7303C203.705 60.6303 198.005 66.3304 191.005 66.3304Z" fill="#9B9B9B"/>
<path d="M225.605 196.63C215.505 160.73 188.205 133.13 160.205 109.93C160.005 109.53 159.805 109.13 159.705 108.73C159.705 108.73 159.705 108.73 159.705 108.63C159.605 103.13 157.005 98.3301 153.005 95.1301C150.405 93.1301 147.205 91.7301 143.705 91.3301C143.305 91.3301 142.905 91.3301 142.405 91.3301C142.205 91.3301 142.005 91.3301 141.905 91.3301C139.905 91.3301 138.005 91.6301 136.205 92.3301C136.105 92.3301 136.005 92.3301 136.005 92.3301C129.605 94.5301 124.905 100.33 124.205 107.33V107.63C124.205 108.13 124.105 108.63 124.105 109.23C124.105 119.03 132.005 127.03 141.905 127.03C143.505 127.03 145.105 126.83 146.605 126.43C149.605 127.73 152.305 129.43 154.205 131.93C176.505 155.93 196.805 184.63 201.605 217.83C204.505 236.03 195.605 255.63 179.305 264.53C155.405 277.93 126.405 279.13 99.8049 274.83C60.4049 267.23 29.2049 238.23 8.00488 205.43C22.2049 242.53 56.8049 267.83 93.0049 280.93C125.005 292.13 162.805 295.93 193.405 278.43C221.105 262.53 234.105 227.13 225.605 196.63ZM142.005 121.73C135.005 121.73 129.305 116.03 129.305 109.03C129.305 102.03 135.005 96.3301 142.005 96.3301C149.005 96.3301 154.605 102.03 154.605 109.03C154.605 116.03 148.905 121.73 142.005 121.73Z" fill="#9B9B9B"/>
</svg>
